<svg xmlns="http://www.w3.org/2000/svg" width="342" height="407" viewBox="0 0 342 407" version="1.1"><path d="M 82.500 67.239 C 69.300 67.744, 58.113 68.532, 57.641 68.988 C 56.873 69.731, 59.421 85.254, 60.633 87.215 C 60.900 87.647, 68.283 88, 77.040 88 C 92.739 88, 92.969 88.031, 93.453 90.250 C 93.724 91.487, 96.220 108.475, 99 128 C 101.780 147.525, 104.292 164.575, 104.582 165.889 C 105.087 168.183, 118.635 168.580, 122.154 166.405 C 123.363 165.658, 123.160 153.050, 121.495 125.500 C 119.242 88.221, 117.287 92.995, 136.250 89.455 C 154.437 86.061, 153.588 87.039, 151.603 71.750 C 150.774 65.368, 143.582 64.899, 82.500 67.239 M 200 102.140 C 182.994 108.805, 174.639 118.958, 174.566 133.048 C 174.360 172.462, 235.623 183.062, 246.542 145.502 C 254.515 118.077, 226.333 91.820, 200 102.140 M 210.905 118.932 C 185.474 123.901, 189.936 159.411, 216 159.480 C 239.843 159.543, 250.868 132.136, 231.063 122.032 C 227.996 120.468, 216.883 117.746, 215.066 118.115 C 214.755 118.178, 212.882 118.546, 210.905 118.932 M 95.500 217.656 C 73.082 220.322, 73 220.347, 73 224.442 C 73 234.321, 74.024 235.016, 84.668 232.364 C 88.690 231.362, 90.021 239.269, 94.955 293.500 C 96.056 305.600, 97.170 317.640, 97.432 320.254 C 97.969 325.629, 96.573 327.590, 89.687 331.139 C 77.726 337.305, 93.092 339.661, 112.568 334.649 C 167.930 320.400, 183.197 303.939, 175.479 266.815 C 166.582 224.020, 146.385 211.606, 95.500 217.656 M 114.317 242.616 C 112.450 247.481, 115.783 303.830, 118.207 308.379 C 122.513 316.460, 152.991 299.626, 159.630 285.500 C 163.578 277.102, 162.192 260.291, 156.945 252.922 C 151.231 244.898, 116.650 236.537, 114.317 242.616 M 232.071 253.101 C 215.810 258.076, 206.493 278.792, 210.922 300.125 C 217.994 334.187, 277.112 324.760, 276.985 289.591 C 276.894 264.351, 254.572 246.216, 232.071 253.101 M 233.885 269.380 C 215.245 276.041, 213.088 297.427, 229.931 308.573 C 250.437 322.143, 275.448 296.961, 260.990 277.301 C 255.152 269.363, 243.478 265.951, 233.885 269.380" stroke="none" fill="#d5dfef" fill-rule="evenodd"/><path d="M 77.500 3.033 C 75.300 3.543, 69.117 6.086, 63.760 8.685 C 54.019 13.411, 54.019 13.411, 50.760 10.297 C 42.873 2.761, 22.472 3.257, 13.422 11.203 C -0.540 23.461, -0.798 31.293, 7.010 206 C 14.786 379.990, 16.166 389.482, 34.871 397.661 C 39.436 399.657, 51.836 399.695, 57.965 397.731 C 62.167 396.384, 62.748 396.441, 67.843 398.694 C 82.727 405.276, 92.776 405.359, 106.858 399.013 C 116.215 394.797, 116.215 394.797, 122.358 396.613 C 132.126 399.501, 147.470 399.127, 157.099 395.767 C 164.698 393.116, 164.698 393.116, 171.099 395.204 C 185.486 399.898, 202.897 397.732, 212.687 390.031 C 215.889 387.513, 219.380 387.442, 222.846 389.825 C 233.019 396.822, 246.756 396.596, 261.209 389.196 C 271.567 383.893, 271.567 383.893, 279.534 387.696 C 300.301 397.612, 325.664 389.819, 334.943 370.672 C 341.132 357.899, 341.593 339.462, 339.210 200 C 336.519 42.578, 335.497 26.259, 327.460 12.387 C 323.460 5.485, 319.892 4.830, 309.393 9.074 C 306.527 10.233, 305.947 10.089, 301.893 7.215 C 292.432 0.505, 281.398 0.417, 268.498 6.949 C 258.880 11.819, 260.026 11.770, 254.485 7.541 C 243.392 -0.927, 229.472 -0.008, 216.433 10.052 C 210.045 14.980, 209.743 14.969, 203.972 9.570 C 195.366 1.521, 184.804 1.312, 169.715 8.892 C 162.274 12.630, 162.274 12.630, 159.387 10.228 C 147.675 0.481, 135.938 0.570, 118.945 10.532 C 109.524 16.055, 109.252 16.053, 102.862 10.377 C 94.955 3.355, 86.578 0.929, 77.500 3.033 M 277.338 17.045 C 275.512 17.603, 272.416 20.114, 270.010 22.988 C 262.484 31.977, 254.768 32.113, 246.304 23.409 C 238.370 15.249, 231.959 15.255, 223.132 23.431 C 213.853 32.024, 210.534 32.175, 199.043 24.529 C 186.473 16.163, 180.205 15.922, 172.114 23.491 C 164.828 30.305, 158.635 30.430, 152.415 23.888 C 144.727 15.800, 135.591 15.895, 122.894 24.193 C 112.875 30.741, 106.326 30.846, 98.981 24.576 C 87.633 14.890, 75.518 14.695, 61.169 23.969 C 52.308 29.696, 51.656 29.716, 43.063 24.519 C 16.755 8.607, 11.360 21.884, 15.439 92.500 C 20.051 172.331, 22.499 224.422, 25.027 296.500 C 27.794 375.384, 33.447 391.973, 55.394 385.612 C 66.333 382.442, 68.061 382.472, 72.379 385.904 C 81.926 393.491, 91.341 392.648, 103.984 383.074 C 111.209 377.602, 112.743 377.329, 118.862 380.430 C 134.221 388.213, 149.480 388.099, 159.388 380.128 C 164.107 376.331, 165.329 376.285, 173.270 379.604 C 186.441 385.109, 195.605 383.982, 209.446 375.154 C 215.558 371.256, 217.878 371.218, 224.378 374.907 C 238.772 383.075, 248.351 382.737, 260.877 373.619 C 267.997 368.436, 268.740 368.412, 280.110 372.996 C 301.383 381.573, 317.109 377.871, 323.607 362.758 C 326.500 356.030, 326.690 285.944, 324.071 191.662 C 318.880 4.785, 320.058 21.780, 312.441 23.895 C 303.696 26.323, 298.078 25.196, 292.463 19.890 C 289.031 16.648, 282.597 15.437, 277.338 17.045 M 130.153 27.695 C 126.306 29.590, 125.532 30.999, 126.411 34.502 C 127.164 37.501, 129.239 37.678, 132.916 35.060 C 134.415 33.992, 137.747 32.589, 140.321 31.941 C 142.992 31.268, 145 30.185, 145 29.416 C 145 25.926, 135.888 24.869, 130.153 27.695 M 72.250 29.989 C 65.292 34.231, 69.130 40.737, 76.193 36.673 C 78.562 35.311, 81.993 33.885, 83.818 33.504 C 87.456 32.744, 89.092 30.305, 86.896 28.914 C 84.295 27.267, 75.676 27.900, 72.250 29.989 M 229.500 29.386 C 224.598 31.522, 223.451 33.513, 225.405 36.495 C 227.406 39.549, 227.194 39.546, 232.322 36.598 C 234.620 35.277, 237.957 33.892, 239.739 33.521 C 243.811 32.672, 244.844 31.090, 242.462 29.348 C 240.141 27.651, 233.435 27.671, 229.500 29.386 M 281.469 29.062 C 275.359 30.839, 273.074 34.233, 275.579 37.810 C 277.159 40.065, 277.159 40.065, 280.493 38.004 C 282.327 36.871, 286.116 35.264, 288.914 34.433 C 294.994 32.627, 295.518 30.516, 290.250 29.053 C 285.964 27.862, 285.592 27.863, 281.469 29.062 M 180.741 30.397 C 174.040 32.846, 172.460 35.512, 175.360 39.477 C 176.679 41.281, 176.804 41.276, 179.610 39.281 C 181.199 38.151, 184.525 36.651, 187 35.949 C 192.696 34.334, 194.631 32.767, 192.800 31.254 C 190.534 29.381, 184.661 28.964, 180.741 30.397 M 30.500 32.481 C 29.950 32.670, 28.366 33.072, 26.980 33.374 C 21.308 34.609, 18.992 38.533, 21.851 42.064 C 23.701 44.349, 23.701 44.349, 26.601 42.315 C 28.195 41.197, 31.862 39.507, 34.750 38.560 C 40.157 36.788, 40.908 35.976, 38.750 34.238 C 37.331 33.095, 32.009 31.961, 30.500 32.481 M 126 56.621 C 93.590 58.062, 54.929 60.129, 52.250 60.563 C 48.414 61.186, 47.962 67.082, 50.356 85.237 C 51.967 97.450, 50.406 96.520, 69.068 96.384 C 84.960 96.269, 84.960 96.269, 85.468 99.384 C 85.748 101.098, 87.595 118.917, 89.573 138.982 C 93.830 182.172, 91.621 177.002, 105.809 176.992 C 135.086 176.974, 133.517 179.100, 132.127 141.334 C 131.504 124.375, 130.995 107.740, 130.997 104.367 C 131.001 97.118, 130.167 97.570, 146.664 95.873 C 161.721 94.324, 160.500 96.111, 160.500 75.619 C 160.500 54.340, 161.754 55.031, 126 56.621 M 82.500 67.239 C 69.300 67.744, 58.113 68.532, 57.641 68.988 C 56.873 69.731, 59.421 85.254, 60.633 87.215 C 60.900 87.647, 68.283 88, 77.040 88 C 92.739 88, 92.969 88.031, 93.453 90.250 C 93.724 91.487, 96.220 108.475, 99 128 C 101.780 147.525, 104.292 164.575, 104.582 165.889 C 105.087 168.183, 118.635 168.580, 122.154 166.405 C 123.363 165.658, 123.160 153.050, 121.495 125.500 C 119.242 88.221, 117.287 92.995, 136.250 89.455 C 154.437 86.061, 153.588 87.039, 151.603 71.750 C 150.774 65.368, 143.582 64.899, 82.500 67.239 M 201.124 91.578 C 163.272 101.758, 152.145 139.159, 179.240 165.136 C 202.035 186.993, 244.407 180.406, 254.910 153.373 C 268.503 118.391, 236.810 81.979, 201.124 91.578 M 200 102.140 C 182.994 108.805, 174.639 118.958, 174.566 133.048 C 174.360 172.462, 235.623 183.062, 246.542 145.502 C 254.515 118.077, 226.333 91.820, 200 102.140 M 210.905 118.932 C 185.474 123.901, 189.936 159.411, 216 159.480 C 239.843 159.543, 250.868 132.136, 231.063 122.032 C 227.996 120.468, 216.883 117.746, 215.066 118.115 C 214.755 118.178, 212.882 118.546, 210.905 118.932 M 212 127.752 C 198.677 134.407, 208.526 155.403, 222.276 149.658 C 232.587 145.350, 231.989 131.933, 221.282 127.371 C 217.139 125.606, 216.220 125.643, 212 127.752 M 40.433 140.750 C 43.748 179.224, 44.045 180.588, 48.890 179.524 C 53.160 178.586, 53.063 179.623, 50.962 157.463 C 49.921 146.483, 49.053 136.488, 49.034 135.250 C 49.004 133.246, 48.494 133, 44.383 133 C 39.765 133, 39.765 133, 40.433 140.750 M 284.724 145.234 C 280.274 147.814, 280.109 147.095, 288.307 160.859 C 295.139 172.328, 296.206 173.239, 299.243 170.201 C 301.712 167.733, 300.778 164.421, 293.757 150.750 C 289.260 141.993, 289.775 142.307, 284.724 145.234 M 280.750 169.572 C 277.291 171.448, 284.568 191.746, 289.358 193.584 C 296.634 196.376, 297.005 191.041, 290.494 177.250 C 285.950 167.626, 285.293 167.108, 280.750 169.572 M 237.560 197.333 C 235.427 198.892, 243.926 219, 246.717 219 C 252.602 219, 252.603 217.425, 246.726 204.750 C 242.545 195.734, 241.216 194.659, 237.560 197.333 M 218.250 199.220 C 215.239 200.673, 215.300 200.987, 220.841 212.500 C 228.542 228.503, 230.493 231.188, 233.444 229.843 C 237.522 227.985, 237.223 226.485, 229.883 211.977 C 222.712 197.802, 222.247 197.293, 218.250 199.220 M 197.173 207.036 C 193.383 209.346, 193.473 209.574, 206.361 230.250 C 212.973 240.857, 213.067 240.933, 216 238 C 219.153 234.847, 216.323 227.408, 205.630 210.750 C 201.438 204.220, 201.644 204.310, 197.173 207.036 M 84 210.998 C 63.791 214.775, 64.547 214.218, 64.193 225.608 C 63.589 245.022, 63.282 244.643, 77.423 241.901 C 84.076 240.611, 83.681 239.333, 85.438 267.860 C 88.869 323.565, 88.083 328.937, 76.354 329.980 C 66.226 330.880, 67.173 342.535, 77.558 344.790 C 121.997 354.441, 184.841 323.174, 187.683 290 C 192.752 230.808, 150.455 198.579, 84 210.998 M 95.500 217.656 C 73.082 220.322, 73 220.347, 73 224.442 C 73 234.321, 74.024 235.016, 84.668 232.364 C 88.690 231.362, 90.021 239.269, 94.955 293.500 C 96.056 305.600, 97.170 317.640, 97.432 320.254 C 97.969 325.629, 96.573 327.590, 89.687 331.139 C 77.726 337.305, 93.092 339.661, 112.568 334.649 C 167.930 320.400, 183.197 303.939, 175.479 266.815 C 166.582 224.020, 146.385 211.606, 95.500 217.656 M 114.317 242.616 C 112.450 247.481, 115.783 303.830, 118.207 308.379 C 122.513 316.460, 152.991 299.626, 159.630 285.500 C 163.578 277.102, 162.192 260.291, 156.945 252.922 C 151.231 244.898, 116.650 236.537, 114.317 242.616 M 227.610 243.413 C 206.372 251.317, 195.388 276.830, 201.554 303.937 C 211.799 348.979, 286.591 336.675, 286.269 290 C 286.037 256.523, 256.155 232.790, 227.610 243.413 M 125.356 251.514 C 124.800 252.964, 126.653 298.059, 127.291 298.589 C 134.022 304.186, 153.429 279.428, 151.564 267.624 C 149.898 257.077, 128.313 243.809, 125.356 251.514 M 232.071 253.101 C 215.810 258.076, 206.493 278.792, 210.922 300.125 C 217.994 334.187, 277.112 324.760, 276.985 289.591 C 276.894 264.351, 254.572 246.216, 232.071 253.101 M 233.885 269.380 C 215.245 276.041, 213.088 297.427, 229.931 308.573 C 250.437 322.143, 275.448 296.961, 260.990 277.301 C 255.152 269.363, 243.478 265.951, 233.885 269.380 M 237.942 277.948 C 233.385 279.331, 231.051 281, 229.510 283.980 C 222.458 297.617, 241.854 309.763, 252.283 298.240 C 260.669 288.974, 250.239 274.217, 237.942 277.948 M 289.213 356.774 C 286.157 358.803, 286.437 360.469, 290.334 363.441 C 295.827 367.631, 302.799 368.058, 306.430 364.427 C 309.516 361.342, 308.322 360.254, 301.366 359.811 C 296.223 359.483, 294.361 358.930, 293.080 357.347 C 291.579 355.494, 291.222 355.441, 289.213 356.774 M 231.447 363.059 C 226.108 368.958, 242.976 375.952, 249.124 370.388 C 252.352 367.466, 251.464 366, 246.468 366 C 241.555 366, 235 363.743, 235 362.051 C 235 360.388, 233.472 360.821, 231.447 363.059 M 176.861 363.937 C 172.407 367.592, 182.059 374.962, 189.476 373.571 C 197.902 371.990, 198.095 367.468, 189.769 366.713 C 185.121 366.291, 183.111 365.621, 181.859 364.074 C 179.807 361.540, 179.783 361.539, 176.861 363.937 M 126.933 368.067 C 124.436 370.564, 125.378 372.132, 131.143 375.073 C 136.164 377.634, 142.399 377.601, 145 375 C 148.576 371.424, 147.585 370.270, 140.557 369.823 C 136.356 369.555, 133.457 368.819, 132.228 367.706 C 129.829 365.535, 129.438 365.562, 126.933 368.067 M 41.534 369.963 C 36.176 375.883, 53.242 382.758, 59 377 C 62.069 373.931, 61.499 373.337, 54.810 372.638 C 50.675 372.206, 47.914 371.328, 46.495 369.995 C 43.878 367.537, 43.730 367.536, 41.534 369.963 M 79.534 371.963 C 74.176 377.883, 91.242 384.758, 97 379 C 100.069 375.931, 99.499 375.337, 92.810 374.638 C 88.675 374.206, 85.914 373.328, 84.495 371.995 C 81.878 369.537, 81.730 369.536, 79.534 371.963" stroke="none" fill="#476674" fill-rule="evenodd"/><path d="M 277.338 17.045 C 275.512 17.603, 272.416 20.114, 270.010 22.988 C 262.484 31.977, 254.768 32.113, 246.304 23.409 C 238.370 15.249, 231.959 15.255, 223.132 23.431 C 213.853 32.024, 210.534 32.175, 199.043 24.529 C 186.473 16.163, 180.205 15.922, 172.114 23.491 C 164.828 30.305, 158.635 30.430, 152.415 23.888 C 144.727 15.800, 135.591 15.895, 122.894 24.193 C 112.875 30.741, 106.326 30.846, 98.981 24.576 C 87.633 14.890, 75.518 14.695, 61.169 23.969 C 52.308 29.696, 51.656 29.716, 43.063 24.519 C 16.755 8.607, 11.360 21.884, 15.439 92.500 C 20.051 172.331, 22.499 224.422, 25.027 296.500 C 27.794 375.384, 33.447 391.973, 55.394 385.612 C 66.333 382.442, 68.061 382.472, 72.379 385.904 C 81.926 393.491, 91.341 392.648, 103.984 383.074 C 111.209 377.602, 112.743 377.329, 118.862 380.430 C 134.221 388.213, 149.480 388.099, 159.388 380.128 C 164.107 376.331, 165.329 376.285, 173.270 379.604 C 186.441 385.109, 195.605 383.982, 209.446 375.154 C 215.558 371.256, 217.878 371.218, 224.378 374.907 C 238.772 383.075, 248.351 382.737, 260.877 373.619 C 267.997 368.436, 268.740 368.412, 280.110 372.996 C 301.383 381.573, 317.109 377.871, 323.607 362.758 C 326.500 356.030, 326.690 285.944, 324.071 191.662 C 318.880 4.785, 320.058 21.780, 312.441 23.895 C 303.696 26.323, 298.078 25.196, 292.463 19.890 C 289.031 16.648, 282.597 15.437, 277.338 17.045 M 130.153 27.695 C 126.306 29.590, 125.532 30.999, 126.411 34.502 C 127.164 37.501, 129.239 37.678, 132.916 35.060 C 134.415 33.992, 137.747 32.589, 140.321 31.941 C 142.992 31.268, 145 30.185, 145 29.416 C 145 25.926, 135.888 24.869, 130.153 27.695 M 72.250 29.989 C 65.292 34.231, 69.130 40.737, 76.193 36.673 C 78.562 35.311, 81.993 33.885, 83.818 33.504 C 87.456 32.744, 89.092 30.305, 86.896 28.914 C 84.295 27.267, 75.676 27.900, 72.250 29.989 M 229.500 29.386 C 224.598 31.522, 223.451 33.513, 225.405 36.495 C 227.406 39.549, 227.194 39.546, 232.322 36.598 C 234.620 35.277, 237.957 33.892, 239.739 33.521 C 243.811 32.672, 244.844 31.090, 242.462 29.348 C 240.141 27.651, 233.435 27.671, 229.500 29.386 M 281.469 29.062 C 275.359 30.839, 273.074 34.233, 275.579 37.810 C 277.159 40.065, 277.159 40.065, 280.493 38.004 C 282.327 36.871, 286.116 35.264, 288.914 34.433 C 294.994 32.627, 295.518 30.516, 290.250 29.053 C 285.964 27.862, 285.592 27.863, 281.469 29.062 M 180.741 30.397 C 174.040 32.846, 172.460 35.512, 175.360 39.477 C 176.679 41.281, 176.804 41.276, 179.610 39.281 C 181.199 38.151, 184.525 36.651, 187 35.949 C 192.696 34.334, 194.631 32.767, 192.800 31.254 C 190.534 29.381, 184.661 28.964, 180.741 30.397 M 30.500 32.481 C 29.950 32.670, 28.366 33.072, 26.980 33.374 C 21.308 34.609, 18.992 38.533, 21.851 42.064 C 23.701 44.349, 23.701 44.349, 26.601 42.315 C 28.195 41.197, 31.862 39.507, 34.750 38.560 C 40.157 36.788, 40.908 35.976, 38.750 34.238 C 37.331 33.095, 32.009 31.961, 30.500 32.481 M 126 56.621 C 93.590 58.062, 54.929 60.129, 52.250 60.563 C 48.414 61.186, 47.962 67.082, 50.356 85.237 C 51.967 97.450, 50.406 96.520, 69.068 96.384 C 84.960 96.269, 84.960 96.269, 85.468 99.384 C 85.748 101.098, 87.595 118.917, 89.573 138.982 C 93.830 182.172, 91.621 177.002, 105.809 176.992 C 135.086 176.974, 133.517 179.100, 132.127 141.334 C 131.504 124.375, 130.995 107.740, 130.997 104.367 C 131.001 97.118, 130.167 97.570, 146.664 95.873 C 161.721 94.324, 160.500 96.111, 160.500 75.619 C 160.500 54.340, 161.754 55.031, 126 56.621 M 201.124 91.578 C 163.272 101.758, 152.145 139.159, 179.240 165.136 C 202.035 186.993, 244.407 180.406, 254.910 153.373 C 268.503 118.391, 236.810 81.979, 201.124 91.578 M 212 127.752 C 198.677 134.407, 208.526 155.403, 222.276 149.658 C 232.587 145.350, 231.989 131.933, 221.282 127.371 C 217.139 125.606, 216.220 125.643, 212 127.752 M 40.433 140.750 C 43.748 179.224, 44.045 180.588, 48.890 179.524 C 53.160 178.586, 53.063 179.623, 50.962 157.463 C 49.921 146.483, 49.053 136.488, 49.034 135.250 C 49.004 133.246, 48.494 133, 44.383 133 C 39.765 133, 39.765 133, 40.433 140.750 M 284.724 145.234 C 280.274 147.814, 280.109 147.095, 288.307 160.859 C 295.139 172.328, 296.206 173.239, 299.243 170.201 C 301.712 167.733, 300.778 164.421, 293.757 150.750 C 289.260 141.993, 289.775 142.307, 284.724 145.234 M 280.750 169.572 C 277.291 171.448, 284.568 191.746, 289.358 193.584 C 296.634 196.376, 297.005 191.041, 290.494 177.250 C 285.950 167.626, 285.293 167.108, 280.750 169.572 M 237.560 197.333 C 235.427 198.892, 243.926 219, 246.717 219 C 252.602 219, 252.603 217.425, 246.726 204.750 C 242.545 195.734, 241.216 194.659, 237.560 197.333 M 218.250 199.220 C 215.239 200.673, 215.300 200.987, 220.841 212.500 C 228.542 228.503, 230.493 231.188, 233.444 229.843 C 237.522 227.985, 237.223 226.485, 229.883 211.977 C 222.712 197.802, 222.247 197.293, 218.250 199.220 M 197.173 207.036 C 193.383 209.346, 193.473 209.574, 206.361 230.250 C 212.973 240.857, 213.067 240.933, 216 238 C 219.153 234.847, 216.323 227.408, 205.630 210.750 C 201.438 204.220, 201.644 204.310, 197.173 207.036 M 84 210.998 C 63.791 214.775, 64.547 214.218, 64.193 225.608 C 63.589 245.022, 63.282 244.643, 77.423 241.901 C 84.076 240.611, 83.681 239.333, 85.438 267.860 C 88.869 323.565, 88.083 328.937, 76.354 329.980 C 66.226 330.880, 67.173 342.535, 77.558 344.790 C 121.997 354.441, 184.841 323.174, 187.683 290 C 192.752 230.808, 150.455 198.579, 84 210.998 M 227.610 243.413 C 206.372 251.317, 195.388 276.830, 201.554 303.937 C 211.799 348.979, 286.591 336.675, 286.269 290 C 286.037 256.523, 256.155 232.790, 227.610 243.413 M 125.356 251.514 C 124.800 252.964, 126.653 298.059, 127.291 298.589 C 134.022 304.186, 153.429 279.428, 151.564 267.624 C 149.898 257.077, 128.313 243.809, 125.356 251.514 M 237.942 277.948 C 233.385 279.331, 231.051 281, 229.510 283.980 C 222.458 297.617, 241.854 309.763, 252.283 298.240 C 260.669 288.974, 250.239 274.217, 237.942 277.948 M 289.213 356.774 C 286.157 358.803, 286.437 360.469, 290.334 363.441 C 295.827 367.631, 302.799 368.058, 306.430 364.427 C 309.516 361.342, 308.322 360.254, 301.366 359.811 C 296.223 359.483, 294.361 358.930, 293.080 357.347 C 291.579 355.494, 291.222 355.441, 289.213 356.774 M 231.447 363.059 C 226.108 368.958, 242.976 375.952, 249.124 370.388 C 252.352 367.466, 251.464 366, 246.468 366 C 241.555 366, 235 363.743, 235 362.051 C 235 360.388, 233.472 360.821, 231.447 363.059 M 176.861 363.937 C 172.407 367.592, 182.059 374.962, 189.476 373.571 C 197.902 371.990, 198.095 367.468, 189.769 366.713 C 185.121 366.291, 183.111 365.621, 181.859 364.074 C 179.807 361.540, 179.783 361.539, 176.861 363.937 M 126.933 368.067 C 124.436 370.564, 125.378 372.132, 131.143 375.073 C 136.164 377.634, 142.399 377.601, 145 375 C 148.576 371.424, 147.585 370.270, 140.557 369.823 C 136.356 369.555, 133.457 368.819, 132.228 367.706 C 129.829 365.535, 129.438 365.562, 126.933 368.067 M 41.534 369.963 C 36.176 375.883, 53.242 382.758, 59 377 C 62.069 373.931, 61.499 373.337, 54.810 372.638 C 50.675 372.206, 47.914 371.328, 46.495 369.995 C 43.878 367.537, 43.730 367.536, 41.534 369.963 M 79.534 371.963 C 74.176 377.883, 91.242 384.758, 97 379 C 100.069 375.931, 99.499 375.337, 92.810 374.638 C 88.675 374.206, 85.914 373.328, 84.495 371.995 C 81.878 369.537, 81.730 369.536, 79.534 371.963" stroke="none" fill="#f2a33c" fill-rule="evenodd"/></svg>